<svg width="403" height="120" viewBox="0 0 403 120" fill="none" xmlns="http://www.w3.org/2000/svg">
<path d="M0 7C0 3.13401 3.13401 0 7 0H370.556C378.091 0 380.307 10.2707 373.443 13.3773L299.37 46.9015C294.187 49.2472 293.819 56.4678 298.736 59.329L380.573 106.95C386.752 110.545 384.201 120 377.052 120H7.00001C3.13401 120 0 116.866 0 113V7Z" fill="#E0CE00"/>
<path d="M34.2727 77H22.4432V42.0909H34.5114C37.9773 42.0909 40.9545 42.7898 43.4432 44.1875C45.9432 45.5739 47.8636 47.5682 49.2045 50.1705C50.5455 52.7727 51.2159 55.8864 51.2159 59.5114C51.2159 63.1477 50.5398 66.2727 49.1875 68.8864C47.8466 71.5 45.9091 73.5057 43.375 74.9034C40.8523 76.3011 37.8182 77 34.2727 77ZM28.767 71.5284H33.9659C36.3977 71.5284 38.4261 71.0852 40.0511 70.1989C41.6761 69.3011 42.8977 67.9659 43.7159 66.1932C44.5341 64.4091 44.9432 62.1818 44.9432 59.5114C44.9432 56.8409 44.5341 54.625 43.7159 52.8636C42.8977 51.0909 41.6875 49.767 40.0852 48.892C38.4943 48.0057 36.517 47.5625 34.1534 47.5625H28.767V71.5284ZM56.9517 77V50.8182H63.1222V77H56.9517ZM60.054 47.1023C59.0767 47.1023 58.2358 46.7784 57.5312 46.1307C56.8267 45.4716 56.4744 44.6818 56.4744 43.7614C56.4744 42.8295 56.8267 42.0398 57.5312 41.392C58.2358 40.733 59.0767 40.4034 60.054 40.4034C61.0426 40.4034 61.8835 40.733 62.5767 41.392C63.2813 42.0398 63.6335 42.8295 63.6335 43.7614C63.6335 44.6818 63.2813 45.4716 62.5767 46.1307C61.8835 46.7784 61.0426 47.1023 60.054 47.1023ZM69.7401 77V42.0909H75.9105V55.1477H76.1662C76.4844 54.5114 76.9332 53.8352 77.5128 53.1193C78.0923 52.392 78.8764 51.7727 79.8651 51.2614C80.8537 50.7386 82.1151 50.4773 83.6491 50.4773C85.6719 50.4773 87.4957 50.9943 89.1207 52.0284C90.7571 53.0511 92.0526 54.5682 93.0071 56.5795C93.973 58.5795 94.456 61.0341 94.456 63.9432C94.456 66.8182 93.9844 69.2614 93.0412 71.2727C92.098 73.2841 90.8139 74.8182 89.1889 75.875C87.5639 76.9318 85.723 77.4602 83.6662 77.4602C82.1662 77.4602 80.9219 77.2102 79.9332 76.7102C78.9446 76.2102 78.1491 75.608 77.5469 74.9034C76.956 74.1875 76.4957 73.5114 76.1662 72.875H75.8082V77H69.7401ZM75.7912 63.9091C75.7912 65.6023 76.0298 67.0852 76.5071 68.358C76.9957 69.6307 77.6946 70.625 78.6037 71.3409C79.5241 72.0455 80.6378 72.3977 81.9446 72.3977C83.3082 72.3977 84.4503 72.0341 85.3707 71.3068C86.2912 70.5682 86.9844 69.5625 87.4503 68.2898C87.9276 67.0057 88.1662 65.5455 88.1662 63.9091C88.1662 62.2841 87.9332 60.8409 87.4673 59.5795C87.0014 58.3182 86.3082 57.3295 85.3878 56.6136C84.4673 55.8977 83.3196 55.5398 81.9446 55.5398C80.6264 55.5398 79.5071 55.8864 78.5866 56.5795C77.6662 57.2727 76.9673 58.2443 76.4901 59.4943C76.0241 60.7443 75.7912 62.2159 75.7912 63.9091ZM116.389 65.9886V50.8182H122.56V77H116.577V72.3466H116.304C115.713 73.8125 114.741 75.0114 113.389 75.9432C112.048 76.875 110.395 77.3409 108.429 77.3409C106.713 77.3409 105.196 76.9602 103.878 76.1989C102.571 75.4261 101.548 74.3068 100.81 72.8409C100.071 71.3636 99.7017 69.5795 99.7017 67.4886V50.8182H105.872V66.5341C105.872 68.1932 106.327 69.5114 107.236 70.4886C108.145 71.4659 109.338 71.9545 110.815 71.9545C111.724 71.9545 112.605 71.733 113.457 71.2898C114.31 70.8466 115.009 70.1875 115.554 69.3125C116.111 68.4261 116.389 67.3182 116.389 65.9886ZM134.53 68.7841L134.513 61.3352H135.501L144.911 50.8182H152.121L140.547 63.7045H139.268L134.53 68.7841ZM128.905 77V42.0909H135.075V77H128.905ZM145.337 77L136.814 65.0852L140.973 60.7386L152.717 77H145.337ZM163.767 77.5284C162.108 77.5284 160.614 77.233 159.284 76.642C157.966 76.0398 156.92 75.1534 156.148 73.983C155.386 72.8125 155.006 71.3693 155.006 69.6534C155.006 68.1761 155.278 66.9545 155.824 65.9886C156.369 65.0227 157.114 64.25 158.057 63.6705C159 63.0909 160.063 62.6534 161.244 62.358C162.438 62.0511 163.67 61.8295 164.943 61.6932C166.477 61.5341 167.722 61.392 168.676 61.267C169.631 61.1307 170.324 60.9261 170.756 60.6534C171.199 60.3693 171.42 59.9318 171.42 59.3409V59.2386C171.42 57.9545 171.04 56.9602 170.278 56.2557C169.517 55.5511 168.42 55.1989 166.989 55.1989C165.477 55.1989 164.278 55.5284 163.392 56.1875C162.517 56.8466 161.926 57.625 161.619 58.5227L155.858 57.7045C156.313 56.1136 157.063 54.7841 158.108 53.7159C159.153 52.6364 160.432 51.8295 161.943 51.2955C163.455 50.75 165.125 50.4773 166.955 50.4773C168.216 50.4773 169.472 50.625 170.722 50.9205C171.972 51.2159 173.114 51.7045 174.148 52.3864C175.182 53.0568 176.011 53.9716 176.636 55.1307C177.273 56.2898 177.591 57.7386 177.591 59.4773V77H171.659V73.4034H171.455C171.08 74.1307 170.551 74.8125 169.869 75.4489C169.199 76.0739 168.352 76.5795 167.33 76.9659C166.318 77.3409 165.131 77.5284 163.767 77.5284ZM165.369 72.9943C166.608 72.9943 167.682 72.75 168.591 72.2614C169.5 71.7614 170.199 71.1023 170.688 70.2841C171.188 69.4659 171.438 68.5739 171.438 67.608V64.5227C171.244 64.6818 170.915 64.8295 170.449 64.9659C169.994 65.1023 169.483 65.2216 168.915 65.3239C168.347 65.4261 167.784 65.517 167.227 65.5966C166.67 65.6761 166.188 65.7443 165.778 65.8011C164.858 65.9261 164.034 66.1307 163.307 66.4148C162.58 66.6989 162.006 67.0966 161.585 67.608C161.165 68.108 160.955 68.7557 160.955 69.5511C160.955 70.6875 161.369 71.5455 162.199 72.125C163.028 72.7045 164.085 72.9943 165.369 72.9943Z" fill="black"/>
</svg>
