<svg width="249" height="233" viewBox="0 0 249 233" fill="none" xmlns="http://www.w3.org/2000/svg">
<path d="M2.38557 215.547V205.468H5.97842C6.76261 205.468 7.41228 205.611 7.92741 205.896C8.44255 206.181 8.82809 206.572 9.08401 207.067C9.33994 207.559 9.46791 208.114 9.46791 208.731C9.46791 209.351 9.3383 209.909 9.07909 210.404C8.82316 210.896 8.43599 211.287 7.91757 211.576C7.40243 211.861 6.75441 212.004 5.9735 212.004H3.5028V210.714H5.83569C6.33114 210.714 6.73308 210.629 7.04151 210.458C7.34993 210.284 7.57633 210.048 7.7207 209.75C7.86507 209.451 7.93726 209.111 7.93726 208.731C7.93726 208.35 7.86507 208.012 7.7207 207.717C7.57633 207.422 7.34829 207.19 7.03659 207.023C6.72816 206.856 6.3213 206.772 5.816 206.772H3.90638V215.547H2.38557ZM10.7537 206.777V205.468H18.5546V206.777H15.4096V215.547H13.8938V206.777H10.7537ZM25.776 208.116C25.7235 207.65 25.5069 207.289 25.1263 207.033C24.7457 206.774 24.2667 206.644 23.6892 206.644C23.2758 206.644 22.9181 206.71 22.6162 206.841C22.3144 206.969 22.0798 207.146 21.9124 207.372C21.7484 207.596 21.6664 207.85 21.6664 208.135C21.6664 208.375 21.7221 208.582 21.8337 208.755C21.9485 208.929 22.0978 209.075 22.2816 209.194C22.4686 209.308 22.6687 209.405 22.882 209.484C23.0953 209.559 23.3004 209.622 23.4972 209.671L24.4816 209.927C24.8031 210.006 25.1329 210.112 25.4708 210.247C25.8088 210.381 26.1221 210.558 26.4109 210.778C26.6996 210.998 26.9326 211.27 27.1098 211.595C27.2902 211.92 27.3805 212.309 27.3805 212.762C27.3805 213.333 27.2328 213.84 26.9375 214.283C26.6455 214.725 26.2206 215.075 25.6628 215.331C25.1083 215.587 24.4373 215.715 23.6498 215.715C22.8951 215.715 22.2422 215.595 21.691 215.355C21.1397 215.116 20.7083 214.776 20.3966 214.337C20.0848 213.894 19.9126 213.369 19.8798 212.762H21.4055C21.435 213.126 21.5532 213.429 21.7599 213.672C21.9699 213.912 22.2373 214.091 22.5621 214.209C22.8902 214.324 23.2495 214.381 23.64 214.381C24.0698 214.381 24.452 214.314 24.7867 214.179C25.1247 214.041 25.3904 213.851 25.584 213.608C25.7776 213.362 25.8744 213.075 25.8744 212.747C25.8744 212.448 25.7891 212.204 25.6185 212.014C25.4511 211.823 25.2231 211.666 24.9344 211.541C24.6489 211.416 24.3257 211.307 23.9648 211.211L22.7737 210.887C21.9666 210.667 21.3268 210.344 20.8543 209.917C20.3851 209.49 20.1505 208.926 20.1505 208.224C20.1505 207.643 20.308 207.136 20.623 206.703C20.9379 206.27 21.3645 205.934 21.9026 205.694C22.4407 205.451 23.0477 205.33 23.7236 205.33C24.4061 205.33 25.0082 205.45 25.5299 205.689C26.0549 205.929 26.4683 206.259 26.7702 206.679C27.072 207.095 27.2295 207.574 27.2426 208.116H25.776ZM36.1288 215.547H32.8657V205.468H36.2321C37.2198 205.468 38.0679 205.67 38.7767 206.073C39.4854 206.473 40.0284 207.049 40.4057 207.801C40.7864 208.549 40.9767 209.446 40.9767 210.493C40.9767 211.543 40.7847 212.445 40.4008 213.2C40.0202 213.954 39.469 214.535 38.7471 214.942C38.0253 215.346 37.1525 215.547 36.1288 215.547ZM34.3865 214.219H36.0451C36.8129 214.219 37.4511 214.074 37.9597 213.785C38.4682 213.493 38.8488 213.072 39.1015 212.521C39.3541 211.966 39.4805 211.29 39.4805 210.493C39.4805 209.702 39.3541 209.031 39.1015 208.48C38.8521 207.929 38.4797 207.51 37.9843 207.225C37.4888 206.939 36.8736 206.797 36.1386 206.797H34.3865V214.219ZM42.8678 215.547V205.468H49.1873V206.777H44.3886V209.848H48.8575V211.152H44.3886V214.238H49.2464V215.547H42.8678ZM59.3543 205.468V215.547H57.9565L52.8331 208.155H52.7395V215.547H51.2187V205.468H52.6263L57.7548 212.87H57.8483V205.468H59.3543ZM68.3942 208.652C68.2991 208.354 68.1711 208.086 68.0104 207.85C67.8529 207.61 67.6642 207.407 67.4444 207.24C67.2245 207.069 66.9735 206.939 66.6913 206.851C66.4124 206.762 66.1057 206.718 65.771 206.718C65.2033 206.718 64.6915 206.864 64.2354 207.156C63.7793 207.448 63.4184 207.876 63.1526 208.44C62.8901 209.002 62.7589 209.689 62.7589 210.503C62.7589 211.32 62.8918 212.01 63.1576 212.575C63.4233 213.139 63.7875 213.567 64.2502 213.859C64.7128 214.151 65.2394 214.297 65.83 214.297C66.378 214.297 66.8554 214.186 67.2623 213.963C67.6724 213.74 67.989 213.425 68.2121 213.018C68.4385 212.608 68.5517 212.125 68.5517 211.571L68.9455 211.645H66.0614V210.389H70.0233V211.536C70.0233 212.383 69.8429 213.118 69.4819 213.741C69.1243 214.361 68.6288 214.84 67.9956 215.178C67.3656 215.516 66.6438 215.685 65.83 215.685C64.9179 215.685 64.1173 215.475 63.4282 215.055C62.7425 214.635 62.2077 214.04 61.8238 213.269C61.4399 212.494 61.2479 211.576 61.2479 210.513C61.2479 209.709 61.3595 208.987 61.5826 208.347C61.8057 207.707 62.1191 207.164 62.5227 206.718C62.9295 206.268 63.4069 205.925 63.9549 205.689C64.5061 205.45 65.1082 205.33 65.7611 205.33C66.3058 205.33 66.8127 205.41 67.2819 205.571C67.7544 205.732 68.1744 205.96 68.5419 206.255C68.9127 206.551 69.2195 206.902 69.4623 207.308C69.7051 207.712 69.8691 208.16 69.9544 208.652H68.3942ZM72.494 215.547H70.8797L74.507 205.468H76.2641L79.8913 215.547H78.277L75.4274 207.299H75.3486L72.494 215.547ZM72.7647 211.6H78.0014V212.88H72.7647V211.6ZM89.4825 205.468V215.547H88.0848L82.9613 208.155H82.8678V215.547H81.3469V205.468H82.7546L87.883 212.87H87.9765V205.468H89.4825ZM95.3689 215.547V205.468H98.9617C99.7459 205.468 100.396 205.611 100.911 205.896C101.426 206.181 101.811 206.572 102.067 207.067C102.323 207.559 102.451 208.114 102.451 208.731C102.451 209.351 102.322 209.909 102.062 210.404C101.806 210.896 101.419 211.287 100.901 211.576C100.386 211.861 99.7377 212.004 98.9568 212.004H96.4861V210.714H98.819C99.3144 210.714 99.7164 210.629 100.025 210.458C100.333 210.284 100.56 210.048 100.704 209.75C100.848 209.451 100.921 209.111 100.921 208.731C100.921 208.35 100.848 208.012 100.704 207.717C100.56 207.422 100.332 207.19 100.02 207.023C99.7115 206.856 99.3046 206.772 98.7993 206.772H96.8897V215.547H95.3689ZM104.234 215.547V205.468H107.827C108.608 205.468 109.256 205.602 109.771 205.871C110.289 206.14 110.677 206.513 110.933 206.989C111.188 207.461 111.316 208.007 111.316 208.628C111.316 209.244 111.187 209.787 110.928 210.257C110.672 210.723 110.285 211.085 109.766 211.344C109.251 211.603 108.603 211.733 107.822 211.733H105.1V210.424H107.684C108.176 210.424 108.577 210.353 108.885 210.212C109.197 210.071 109.425 209.866 109.569 209.597C109.714 209.328 109.786 209.005 109.786 208.628C109.786 208.247 109.712 207.917 109.564 207.638C109.42 207.359 109.192 207.146 108.88 206.998C108.572 206.847 108.167 206.772 107.665 206.772H105.755V215.547H104.234ZM109.21 211L111.7 215.547H109.968L107.527 211H109.21ZM121.923 210.508C121.923 211.584 121.726 212.509 121.332 213.283C120.938 214.055 120.399 214.648 119.713 215.065C119.03 215.479 118.254 215.685 117.385 215.685C116.512 215.685 115.733 215.479 115.047 215.065C114.365 214.648 113.827 214.053 113.433 213.279C113.039 212.504 112.842 211.581 112.842 210.508C112.842 209.431 113.039 208.508 113.433 207.737C113.827 206.962 114.365 206.368 115.047 205.955C115.733 205.538 116.512 205.33 117.385 205.33C118.254 205.33 119.03 205.538 119.713 205.955C120.399 206.368 120.938 206.962 121.332 207.737C121.726 208.508 121.923 209.431 121.923 210.508ZM120.417 210.508C120.417 209.687 120.284 208.997 120.018 208.436C119.756 207.871 119.395 207.445 118.935 207.156C118.479 206.864 117.962 206.718 117.385 206.718C116.804 206.718 116.286 206.864 115.83 207.156C115.374 207.445 115.013 207.871 114.747 208.436C114.484 208.997 114.353 209.687 114.353 210.508C114.353 211.328 114.484 212.02 114.747 212.585C115.013 213.146 115.374 213.572 115.83 213.864C116.286 214.153 116.804 214.297 117.385 214.297C117.962 214.297 118.479 214.153 118.935 213.864C119.395 213.572 119.756 213.146 120.018 212.585C120.284 212.02 120.417 211.328 120.417 210.508ZM127.082 215.547H123.819V205.468H127.185C128.173 205.468 129.021 205.67 129.73 206.073C130.439 206.473 130.982 207.049 131.359 207.801C131.739 208.549 131.93 209.446 131.93 210.493C131.93 211.543 131.738 212.445 131.354 213.2C130.973 213.954 130.422 214.535 129.7 214.942C128.978 215.346 128.106 215.547 127.082 215.547ZM125.34 214.219H126.998C127.766 214.219 128.404 214.074 128.913 213.785C129.421 213.493 129.802 213.072 130.055 212.521C130.307 211.966 130.434 211.29 130.434 210.493C130.434 209.702 130.307 209.031 130.055 208.48C129.805 207.929 129.433 207.51 128.937 207.225C128.442 206.939 127.827 206.797 127.092 206.797H125.34V214.219ZM135.342 205.468V215.547H133.821V205.468H135.342ZM140.727 206.777V205.468H148.528V206.777H145.383V215.547H143.867V206.777H140.727ZM150.252 215.547V205.468H156.572V206.777H151.773V209.848H156.242V211.152H151.773V214.238H156.631V215.547H150.252ZM158.603 215.547V205.468H162.196C162.977 205.468 163.625 205.602 164.14 205.871C164.658 206.14 165.045 206.513 165.301 206.989C165.557 207.461 165.685 208.007 165.685 208.628C165.685 209.244 165.556 209.787 165.296 210.257C165.041 210.723 164.653 211.085 164.135 211.344C163.62 211.603 162.972 211.733 162.191 211.733H159.469V210.424H162.053C162.545 210.424 162.946 210.353 163.254 210.212C163.566 210.071 163.794 209.866 163.938 209.597C164.082 209.328 164.155 209.005 164.155 208.628C164.155 208.247 164.081 207.917 163.933 207.638C163.789 207.359 163.561 207.146 163.249 206.998C162.941 206.847 162.535 206.772 162.033 206.772H160.124V215.547H158.603ZM163.579 211L166.069 215.547H164.337L161.896 211H163.579ZM168.387 215.547H166.773L170.4 205.468H172.157L175.785 215.547H174.17L171.321 207.299H171.242L168.387 215.547ZM168.658 211.6H173.895V212.88H168.658V211.6ZM177.24 215.547V205.468H178.761V210.281H178.884L183.112 205.468H185.026L180.961 210.006L185.041 215.547H183.21L179.952 211.044L178.761 212.412V215.547H177.24ZM186.444 215.547V205.468H190.037C190.818 205.468 191.466 205.602 191.981 205.871C192.499 206.14 192.886 206.513 193.142 206.989C193.398 207.461 193.526 208.007 193.526 208.628C193.526 209.244 193.397 209.787 193.137 210.257C192.881 210.723 192.494 211.085 191.976 211.344C191.461 211.603 190.813 211.733 190.032 211.733H187.31V210.424H189.894C190.386 210.424 190.786 210.353 191.095 210.212C191.407 210.071 191.635 209.866 191.779 209.597C191.923 209.328 191.995 209.005 191.995 208.628C191.995 208.247 191.922 207.917 191.774 207.638C191.63 207.359 191.402 207.146 191.09 206.998C190.781 206.847 190.376 206.772 189.874 206.772H187.965V215.547H186.444ZM191.42 211L193.91 215.547H192.178L189.736 211H191.42ZM195.377 215.547V205.468H201.696V206.777H196.898V209.848H201.366V211.152H196.898V214.238H201.755V215.547H195.377ZM206.991 215.547H203.728V205.468H207.094C208.082 205.468 208.93 205.67 209.639 206.073C210.347 206.473 210.89 207.049 211.268 207.801C211.648 208.549 211.839 209.446 211.839 210.493C211.839 211.543 211.647 212.445 211.263 213.2C210.882 213.954 210.331 214.535 209.609 214.942C208.887 215.346 208.014 215.547 206.991 215.547ZM205.248 214.219H206.907C207.675 214.219 208.313 214.074 208.822 213.785C209.33 213.493 209.711 213.072 209.963 212.521C210.216 211.966 210.342 211.29 210.342 210.493C210.342 209.702 210.216 209.031 209.963 208.48C209.714 207.929 209.342 207.51 208.846 207.225C208.351 206.939 207.736 206.797 207.001 206.797H205.248V214.219ZM215.251 205.468V215.547H213.73V205.468H215.251ZM216.968 206.777V205.468H224.769V206.777H221.624V215.547H220.108V206.777H216.968ZM226.153 215.547H224.539L228.166 205.468H229.923L233.551 215.547H231.936L229.087 207.299H229.008L226.153 215.547ZM226.424 211.6H231.661V212.88H226.424V211.6ZM240.423 208.116C240.37 207.65 240.154 207.289 239.773 207.033C239.392 206.774 238.913 206.644 238.336 206.644C237.922 206.644 237.565 206.71 237.263 206.841C236.961 206.969 236.726 207.146 236.559 207.372C236.395 207.596 236.313 207.85 236.313 208.135C236.313 208.375 236.369 208.582 236.48 208.755C236.595 208.929 236.744 209.075 236.928 209.194C237.115 209.308 237.315 209.405 237.529 209.484C237.742 209.559 237.947 209.622 238.144 209.671L239.128 209.927C239.45 210.006 239.779 210.112 240.117 210.247C240.455 210.381 240.769 210.558 241.057 210.778C241.346 210.998 241.579 211.27 241.756 211.595C241.937 211.92 242.027 212.309 242.027 212.762C242.027 213.333 241.879 213.84 241.584 214.283C241.292 214.725 240.867 215.075 240.309 215.331C239.755 215.587 239.084 215.715 238.296 215.715C237.542 215.715 236.889 215.595 236.338 215.355C235.786 215.116 235.355 214.776 235.043 214.337C234.731 213.894 234.559 213.369 234.526 212.762H236.052C236.082 213.126 236.2 213.429 236.406 213.672C236.616 213.912 236.884 214.091 237.209 214.209C237.537 214.324 237.896 214.381 238.287 214.381C238.716 214.381 239.099 214.314 239.433 214.179C239.771 214.041 240.037 213.851 240.231 213.608C240.424 213.362 240.521 213.075 240.521 212.747C240.521 212.448 240.436 212.204 240.265 212.014C240.098 211.823 239.87 211.666 239.581 211.541C239.296 211.416 238.972 211.307 238.611 211.211L237.42 210.887C236.613 210.667 235.973 210.344 235.501 209.917C235.032 209.49 234.797 208.926 234.797 208.224C234.797 207.643 234.955 207.136 235.27 206.703C235.585 206.27 236.011 205.934 236.549 205.694C237.087 205.451 237.694 205.33 238.37 205.33C239.053 205.33 239.655 205.45 240.177 205.689C240.701 205.929 241.115 206.259 241.417 206.679C241.719 207.095 241.876 207.574 241.889 208.116H240.423ZM245.365 205.468V215.547H243.844V205.468H245.365ZM6.95907 222.468H8.48479V229.097C8.48479 229.803 8.3191 230.428 7.9877 230.972C7.65631 231.514 7.19039 231.94 6.58994 232.252C5.98949 232.561 5.28569 232.715 4.47853 232.715C3.67465 232.715 2.97248 232.561 2.37204 232.252C1.77159 231.94 1.30567 231.514 0.974273 230.972C0.642878 230.428 0.47718 229.803 0.47718 229.097V222.468H1.99799V228.974C1.99799 229.43 2.09806 229.836 2.29821 230.19C2.50164 230.544 2.78874 230.823 3.15951 231.027C3.53028 231.227 3.96995 231.327 4.47853 231.327C4.99038 231.327 5.4317 231.227 5.80247 231.027C6.17651 230.823 6.46197 230.544 6.65884 230.19C6.85899 229.836 6.95907 229.43 6.95907 228.974V222.468ZM18.8314 222.468V232.547H17.4337L12.3102 225.155H12.2167V232.547H10.6959V222.468H12.1035L17.2319 229.87H17.3254V222.468H18.8314ZM27.8714 225.652C27.7762 225.354 27.6483 225.086 27.4875 224.85C27.33 224.61 27.1413 224.407 26.9215 224.24C26.7017 224.069 26.4507 223.939 26.1685 223.851C25.8896 223.762 25.5828 223.718 25.2481 223.718C24.6805 223.718 24.1686 223.864 23.7126 224.156C23.2565 224.448 22.8955 224.876 22.6298 225.44C22.3673 226.002 22.236 226.689 22.236 227.503C22.236 228.32 22.3689 229.01 22.6347 229.575C22.9005 230.139 23.2647 230.567 23.7273 230.859C24.19 231.151 24.7166 231.297 25.3072 231.297C25.8551 231.297 26.3325 231.186 26.7394 230.963C27.1495 230.74 27.4662 230.425 27.6893 230.018C27.9157 229.608 28.0289 229.125 28.0289 228.571L28.4226 228.645H25.5385V227.389H29.5005V228.536C29.5005 229.383 29.32 230.118 28.9591 230.741C28.6014 231.361 28.106 231.84 27.4727 232.178C26.8428 232.516 26.1209 232.685 25.3072 232.685C24.395 232.685 23.5944 232.475 22.9054 232.055C22.2196 231.635 21.6848 231.04 21.3009 230.269C20.917 229.494 20.7251 228.576 20.7251 227.513C20.7251 226.709 20.8366 225.987 21.0598 225.347C21.2829 224.707 21.5962 224.164 21.9998 223.718C22.4067 223.268 22.8841 222.925 23.432 222.689C23.9832 222.45 24.5853 222.33 25.2383 222.33C25.7829 222.33 26.2899 222.41 26.7591 222.571C27.2316 222.732 27.6516 222.96 28.019 223.255C28.3898 223.551 28.6966 223.902 28.9394 224.308C29.1822 224.712 29.3463 225.16 29.4316 225.652H27.8714ZM38.2525 225.652C38.1573 225.354 38.0294 225.086 37.8686 224.85C37.7111 224.61 37.5224 224.407 37.3026 224.24C37.0828 224.069 36.8318 223.939 36.5496 223.851C36.2707 223.762 35.9639 223.718 35.6292 223.718C35.0616 223.718 34.5497 223.864 34.0937 224.156C33.6376 224.448 33.2767 224.876 33.0109 225.44C32.7484 226.002 32.6171 226.689 32.6171 227.503C32.6171 228.32 32.75 229.01 33.0158 229.575C33.2816 230.139 33.6458 230.567 34.1084 230.859C34.5711 231.151 35.0977 231.297 35.6883 231.297C36.2362 231.297 36.7136 231.186 37.1205 230.963C37.5306 230.74 37.8473 230.425 38.0704 230.018C38.2968 229.608 38.41 229.125 38.41 228.571L38.8037 228.645H35.9196V227.389H39.8816V228.536C39.8816 229.383 39.7011 230.118 39.3402 230.741C38.9826 231.361 38.4871 231.84 37.8538 232.178C37.2239 232.516 36.502 232.685 35.6883 232.685C34.7761 232.685 33.9755 232.475 33.2865 232.055C32.6007 231.635 32.0659 231.04 31.682 230.269C31.2981 229.494 31.1062 228.576 31.1062 227.513C31.1062 226.709 31.2177 225.987 31.4409 225.347C31.664 224.707 31.9773 224.164 32.3809 223.718C32.7878 223.268 33.2652 222.925 33.8131 222.689C34.3644 222.45 34.9664 222.33 35.6194 222.33C36.1641 222.33 36.671 222.41 37.1402 222.571C37.6127 222.732 38.0327 222.96 38.4001 223.255C38.7709 223.551 39.0777 223.902 39.3205 224.308C39.5633 224.712 39.7274 225.16 39.8127 225.652H38.2525ZM48.294 222.468H49.8197V229.097C49.8197 229.803 49.654 230.428 49.3226 230.972C48.9912 231.514 48.5253 231.94 47.9249 232.252C47.3244 232.561 46.6206 232.715 45.8135 232.715C45.0096 232.715 44.3074 232.561 43.707 232.252C43.1065 231.94 42.6406 231.514 42.3092 230.972C41.9778 230.428 41.8121 229.803 41.8121 229.097V222.468H43.3329V228.974C43.3329 229.43 43.433 229.836 43.6331 230.19C43.8366 230.544 44.1237 230.823 44.4944 231.027C44.8652 231.227 45.3049 231.327 45.8135 231.327C46.3253 231.327 46.7666 231.227 47.1374 231.027C47.5115 230.823 47.7969 230.544 47.9938 230.19C48.1939 229.836 48.294 229.43 48.294 228.974V222.468ZM52.0308 232.547V222.468H53.5516V231.238H58.119V232.547H52.0308ZM63.0247 223.777V222.468H70.8256V223.777H67.6806V232.547H66.1647V223.777H63.0247ZM72.5494 232.547V222.468H78.8689V223.777H74.0702V226.848H78.5391V228.152H74.0702V231.238H78.9279V232.547H72.5494ZM80.9003 232.547V222.468H84.4931C85.2741 222.468 85.9221 222.602 86.4372 222.871C86.9556 223.14 87.3428 223.513 87.5987 223.989C87.8547 224.461 87.9826 225.007 87.9826 225.628C87.9826 226.244 87.853 226.787 87.5938 227.257C87.3379 227.723 86.9507 228.085 86.4323 228.344C85.9172 228.603 85.2691 228.733 84.4882 228.733H81.7665V227.424H84.3504C84.8426 227.424 85.2429 227.353 85.5513 227.212C85.863 227.071 86.0911 226.866 86.2354 226.597C86.3798 226.328 86.452 226.005 86.452 225.628C86.452 225.247 86.3782 224.917 86.2305 224.638C86.0861 224.359 85.8581 224.146 85.5464 223.998C85.238 223.847 84.8327 223.772 84.3307 223.772H82.4211V232.547H80.9003ZM85.8761 228L88.3665 232.547H86.6341L84.1929 228H85.8761ZM89.8332 232.547V222.468H93.5245C94.2398 222.468 94.832 222.586 95.3012 222.822C95.7704 223.055 96.1215 223.372 96.3545 223.772C96.5874 224.169 96.7039 224.617 96.7039 225.116C96.7039 225.536 96.6268 225.89 96.4726 226.179C96.3184 226.464 96.1117 226.694 95.8524 226.868C95.5965 227.038 95.3143 227.163 95.0059 227.242V227.34C95.3406 227.357 95.6671 227.465 95.9853 227.665C96.3069 227.862 96.5727 228.142 96.7826 228.507C96.9926 228.871 97.0976 229.314 97.0976 229.836C97.0976 230.351 96.9762 230.813 96.7334 231.223C96.4939 231.63 96.1231 231.954 95.6211 232.193C95.1191 232.429 94.4776 232.547 93.6967 232.547H89.8332ZM91.354 231.243H93.5491C94.2775 231.243 94.7992 231.102 95.1142 230.82C95.4292 230.538 95.5867 230.185 95.5867 229.762C95.5867 229.443 95.5063 229.151 95.3455 228.886C95.1847 228.62 94.9551 228.408 94.6565 228.251C94.3612 228.093 94.0101 228.015 93.6032 228.015H91.354V231.243ZM91.354 226.828H93.3916C93.7328 226.828 94.0396 226.763 94.312 226.632C94.5876 226.5 94.8058 226.317 94.9665 226.08C95.1306 225.841 95.2126 225.559 95.2126 225.234C95.2126 224.817 95.0666 224.468 94.7746 224.185C94.4826 223.903 94.0347 223.762 93.431 223.762H91.354V226.828ZM99.7529 232.547H98.1386L101.766 222.468H103.523L107.15 232.547H105.536L102.686 224.299H102.607L99.7529 232.547ZM100.024 228.6H105.26V229.88H100.024V228.6ZM116.741 222.468V232.547H115.344L110.22 225.155H110.127V232.547H108.606V222.468H110.013L115.142 229.87H115.235V222.468H116.741ZM118.182 222.468H119.91L122.543 227.05H122.651L125.284 222.468H127.012L123.355 228.59V232.547H121.839V228.59L118.182 222.468ZM128.27 232.547H126.656L130.283 222.468H132.041L135.668 232.547H134.053L131.204 224.299H131.125L128.27 232.547ZM128.541 228.6H133.778V229.88H128.541V228.6ZM137.123 232.547V222.468H138.644V227.281H138.767L142.995 222.468H144.91L140.844 227.006L144.924 232.547H143.093L139.835 228.044L138.644 229.412V232.547H137.123ZM155.492 225.116C155.44 224.65 155.223 224.289 154.843 224.033C154.462 223.774 153.983 223.644 153.406 223.644C152.992 223.644 152.635 223.71 152.333 223.841C152.031 223.969 151.796 224.146 151.629 224.372C151.465 224.596 151.383 224.85 151.383 225.135C151.383 225.375 151.439 225.582 151.55 225.755C151.665 225.929 151.814 226.075 151.998 226.194C152.185 226.308 152.385 226.405 152.598 226.484C152.812 226.559 153.017 226.622 153.214 226.671L154.198 226.927C154.52 227.006 154.849 227.112 155.187 227.247C155.525 227.381 155.839 227.558 156.127 227.778C156.416 227.998 156.649 228.27 156.826 228.595C157.007 228.92 157.097 229.309 157.097 229.762C157.097 230.333 156.949 230.84 156.654 231.283C156.362 231.725 155.937 232.075 155.379 232.331C154.825 232.587 154.154 232.715 153.366 232.715C152.612 232.715 151.959 232.595 151.407 232.355C150.856 232.116 150.425 231.776 150.113 231.337C149.801 230.894 149.629 230.369 149.596 229.762H151.122C151.151 230.126 151.27 230.429 151.476 230.672C151.686 230.912 151.954 231.091 152.279 231.209C152.607 231.324 152.966 231.381 153.356 231.381C153.786 231.381 154.168 231.314 154.503 231.179C154.841 231.041 155.107 230.851 155.3 230.608C155.494 230.362 155.591 230.075 155.591 229.747C155.591 229.448 155.506 229.204 155.335 229.014C155.168 228.823 154.94 228.666 154.651 228.541C154.365 228.416 154.042 228.307 153.681 228.211L152.49 227.887C151.683 227.667 151.043 227.344 150.571 226.917C150.102 226.49 149.867 225.926 149.867 225.224C149.867 224.643 150.024 224.136 150.339 223.703C150.654 223.27 151.081 222.934 151.619 222.694C152.157 222.451 152.764 222.33 153.44 222.33C154.123 222.33 154.725 222.45 155.246 222.689C155.771 222.929 156.185 223.259 156.487 223.679C156.788 224.095 156.946 224.574 156.959 225.116H155.492ZM158.914 232.547V222.468H165.234V223.777H160.435V226.848H164.904V228.152H160.435V231.238H165.293V232.547H158.914ZM171.601 226.868V228.147H167.132V226.868H171.601ZM175.201 222.468V232.547H173.681V222.468H175.201ZM185.552 222.468V232.547H184.154L179.03 225.155H178.937V232.547H177.416V222.468H178.824L183.952 229.87H184.046V222.468H185.552ZM191.033 232.547H187.77V222.468H191.137C192.124 222.468 192.972 222.67 193.681 223.073C194.39 223.473 194.933 224.049 195.31 224.801C195.691 225.549 195.881 226.446 195.881 227.493C195.881 228.543 195.689 229.445 195.305 230.2C194.925 230.954 194.373 231.535 193.652 231.942C192.93 232.346 192.057 232.547 191.033 232.547ZM189.291 231.219H190.95C191.717 231.219 192.356 231.074 192.864 230.785C193.373 230.493 193.753 230.072 194.006 229.521C194.259 228.966 194.385 228.29 194.385 227.493C194.385 226.702 194.259 226.031 194.006 225.48C193.757 224.929 193.384 224.51 192.889 224.225C192.393 223.939 191.778 223.797 191.043 223.797H189.291V231.219ZM206.528 227.508C206.528 228.584 206.331 229.509 205.937 230.283C205.544 231.055 205.004 231.648 204.318 232.065C203.636 232.479 202.86 232.685 201.99 232.685C201.117 232.685 200.338 232.479 199.652 232.065C198.97 231.648 198.432 231.053 198.038 230.279C197.644 229.504 197.447 228.581 197.447 227.508C197.447 226.431 197.644 225.508 198.038 224.737C198.432 223.962 198.97 223.368 199.652 222.955C200.338 222.538 201.117 222.33 201.99 222.33C202.86 222.33 203.636 222.538 204.318 222.955C205.004 223.368 205.544 223.962 205.937 224.737C206.331 225.508 206.528 226.431 206.528 227.508ZM205.022 227.508C205.022 226.687 204.889 225.997 204.623 225.436C204.361 224.871 204 224.445 203.541 224.156C203.084 223.864 202.568 223.718 201.99 223.718C201.409 223.718 200.891 223.864 200.435 224.156C199.979 224.445 199.618 224.871 199.352 225.436C199.09 225.997 198.958 226.687 198.958 227.508C198.958 228.328 199.09 229.02 199.352 229.585C199.618 230.146 199.979 230.572 200.435 230.864C200.891 231.153 201.409 231.297 201.99 231.297C202.568 231.297 203.084 231.153 203.541 230.864C204 230.572 204.361 230.146 204.623 229.585C204.889 229.02 205.022 228.328 205.022 227.508ZM216.56 222.468V232.547H215.162L210.038 225.155H209.945V232.547H208.424V222.468H209.832L214.96 229.87H215.054V222.468H216.56ZM218.778 232.547V222.468H225.098V223.777H220.299V226.848H224.768V228.152H220.299V231.238H225.157V232.547H218.778ZM232.627 225.116C232.574 224.65 232.358 224.289 231.977 224.033C231.596 223.774 231.117 223.644 230.54 223.644C230.126 223.644 229.769 223.71 229.467 223.841C229.165 223.969 228.93 224.146 228.763 224.372C228.599 224.596 228.517 224.85 228.517 225.135C228.517 225.375 228.573 225.582 228.684 225.755C228.799 225.929 228.948 226.075 229.132 226.194C229.319 226.308 229.519 226.405 229.733 226.484C229.946 226.559 230.151 226.622 230.348 226.671L231.332 226.927C231.654 227.006 231.984 227.112 232.321 227.247C232.659 227.381 232.973 227.558 233.262 227.778C233.55 227.998 233.783 228.27 233.96 228.595C234.141 228.92 234.231 229.309 234.231 229.762C234.231 230.333 234.083 230.84 233.788 231.283C233.496 231.725 233.071 232.075 232.513 232.331C231.959 232.587 231.288 232.715 230.5 232.715C229.746 232.715 229.093 232.595 228.542 232.355C227.99 232.116 227.559 231.776 227.247 231.337C226.935 230.894 226.763 230.369 226.73 229.762H228.256C228.286 230.126 228.404 230.429 228.61 230.672C228.82 230.912 229.088 231.091 229.413 231.209C229.741 231.324 230.1 231.381 230.491 231.381C230.92 231.381 231.303 231.314 231.637 231.179C231.975 231.041 232.241 230.851 232.435 230.608C232.628 230.362 232.725 230.075 232.725 229.747C232.725 229.448 232.64 229.204 232.469 229.014C232.302 228.823 232.074 228.666 231.785 228.541C231.5 228.416 231.176 228.307 230.815 228.211L229.624 227.887C228.817 227.667 228.177 227.344 227.705 226.917C227.236 226.49 227.001 225.926 227.001 225.224C227.001 224.643 227.159 224.136 227.474 223.703C227.789 223.27 228.215 222.934 228.753 222.694C229.291 222.451 229.898 222.33 230.574 222.33C231.257 222.33 231.859 222.45 232.381 222.689C232.906 222.929 233.319 223.259 233.621 223.679C233.923 224.095 234.08 224.574 234.093 225.116H232.627ZM237.569 222.468V232.547H236.048V222.468H237.569ZM240.635 232.547H239.021L242.648 222.468H244.405L248.033 232.547H246.418L243.569 224.299H243.49L240.635 232.547ZM240.906 228.6H246.143V229.88H240.906V228.6Z" fill="#2F3185"/>
<path d="M86.2332 190.188C83.5364 189.429 80.923 188.53 78.3374 187.546C80.784 178.33 75.7796 168.72 66.716 165.685C64.4362 172.682 66.6326 180.044 71.6926 184.708C67.8003 182.854 64.1304 180.69 60.5717 178.358C64.6587 169.732 61.4892 159.307 53.0929 154.67C49.701 160.965 50.4239 168.355 54.2884 173.834C51.0911 171.333 48.0607 168.664 45.2248 165.798C51.0077 158.098 49.84 147.14 42.389 140.93C37.8294 146.522 37.19 154.024 40.0536 160.15C37.4124 157.003 34.938 153.743 32.7138 150.287C39.9424 144.33 41.5549 133.736 36.1057 125.925C30.295 130.055 27.7094 137.024 28.7937 143.655C26.8197 139.974 25.1238 136.125 23.6224 132.191C31.8241 127.386 34.9936 116.905 30.6008 108.307C24.4843 111.482 21.0646 117.72 20.9812 124.211C19.8413 120.221 18.9795 116.118 18.3678 111.959C27.487 109.571 33.3255 100.411 31.4349 90.9694C24.3453 92.4024 19.1463 97.9099 17.5615 104.569C17.4225 102.462 17.3113 100.355 17.3113 98.219C17.3113 95.7181 17.4503 93.2454 17.645 90.7727C27.2367 90.2669 34.7712 82.2305 34.6322 72.4801C27.4036 72.5925 21.2593 77.0602 18.5346 83.3545C19.3131 78.3528 20.4808 73.4354 22.0377 68.6586C31.3237 70.4007 40.4706 64.5842 42.7226 55.1709C35.7999 53.485 28.9049 56.1544 24.7067 61.3528C26.9309 55.9577 29.6833 50.8156 32.825 45.9263C41.6105 49.6916 51.8418 45.8982 55.9565 37.1031C49.8956 34.1808 43.0563 35.08 37.9406 38.761C41.3047 34.4618 45.058 30.4436 49.145 26.7626C56.5404 32.8039 67.3555 32.0172 73.7222 24.7957C68.6344 20.2155 61.7394 19.2039 55.7619 21.3676C58.3753 19.4006 61.1 17.5742 63.9636 15.8882C73.0271 17.9675 82.2575 12.7692 85.0377 3.66503C76.0298 0.855109 66.6048 5.63198 63.1851 14.3427C59.6264 16.4502 56.2067 18.7824 53.0095 21.3114C57.013 15.3262 57.291 7.31793 53.1207 0.995605C45.0858 6.44686 42.8616 17.2932 47.9217 25.5543C43.1675 29.8535 38.8581 34.6023 35.0492 39.7164C37.3012 32.8601 35.4106 25.0486 29.5999 20.1312C23.4 27.6056 24.2619 38.6205 31.3515 45.1114C28.043 50.2536 25.2072 55.6767 22.8996 61.3528C23.4 54.4123 19.9525 47.5279 13.4746 44.0436C8.91503 52.6982 12.0567 63.3759 20.4252 68.209C18.8683 73.0701 17.6728 78.0437 16.8943 83.1297C15.5598 76.4421 10.5832 70.7941 3.57699 69.0801C1.325 78.5214 6.85766 87.9346 15.9768 90.6322C15.7822 93.133 15.6432 95.6619 15.6432 98.219C15.6432 100.411 15.7822 102.602 15.9212 104.766C13.3912 98.3876 7.46931 93.7231 0.268513 93.3297C-0.25973 103.136 7.08008 111.51 16.6997 112.297C17.3947 117.13 18.479 121.879 19.8969 126.487C15.8378 120.642 8.5814 117.523 1.2694 119.209C3.41017 128.763 12.6683 134.748 22.0933 132.922C23.7059 137.136 25.5408 141.211 27.7094 145.145C22.8996 140.115 15.4208 138.148 8.5258 140.761C12.0011 150.062 22.2045 154.755 31.4071 151.355C33.7147 154.923 36.2725 158.323 39.0249 161.583C33.103 158.211 25.5408 158.351 19.6745 162.679C25.3462 170.546 36.0779 172.401 44.0293 167.062C47.0876 170.153 50.3683 173.019 53.8158 175.689C47.3378 173.384 39.8034 174.958 34.799 180.353C41.8886 187.069 52.8983 186.788 59.7098 179.875C63.2407 182.179 66.8828 184.315 70.7196 186.17C64.0748 185.299 57.2076 188.193 53.3431 194.29C61.517 199.601 72.3599 197.297 77.7813 189.204C80.3948 190.188 83.036 191.115 85.7328 191.874C85.8162 191.902 85.8996 191.902 85.9552 191.902C86.3166 191.902 86.6781 191.649 86.7893 191.284C86.9561 190.806 86.6781 190.328 86.2332 190.188Z" fill="#2F3185"/>
<path d="M227.439 126.515C228.829 121.907 229.913 117.158 230.636 112.325C240.283 111.538 247.595 103.165 247.067 93.358C239.866 93.7514 233.944 98.4159 231.442 104.766C231.581 102.603 231.72 100.411 231.72 98.2192C231.72 95.6622 231.581 93.1614 231.387 90.6324C240.506 87.9349 246.038 78.5216 243.786 69.0803C236.808 70.7944 231.804 76.4423 230.469 83.1299C229.663 78.044 228.495 73.0704 226.938 68.2092C235.307 63.3762 238.448 52.6984 233.889 44.0439C227.439 47.5282 223.963 54.4125 224.464 61.353C222.156 55.677 219.32 50.2538 216.012 45.1117C223.102 38.6207 223.936 27.6058 217.763 20.1314C211.953 25.0488 210.034 32.8885 212.314 39.7166C208.505 34.6025 204.196 29.8538 199.442 25.5546C204.502 17.3215 202.278 6.4471 194.243 0.99585C190.045 7.31818 190.35 15.3265 194.354 21.2554C191.129 18.7265 187.737 16.4223 184.178 14.2868C180.786 5.57603 171.334 0.827254 162.326 3.60908C165.106 12.7132 174.364 17.9116 183.4 15.8322C186.236 17.5182 188.96 19.3728 191.602 21.3116C185.624 19.148 178.701 20.1595 173.641 24.7397C180.036 31.9893 190.851 32.748 198.218 26.7067C202.305 30.3877 206.059 34.4058 209.423 38.705C204.307 35.024 197.468 34.1249 191.407 37.0472C195.549 45.8422 205.781 49.6356 214.538 45.8703C217.708 50.7596 220.433 55.9018 222.657 61.2968C218.431 56.0704 211.536 53.429 204.641 55.115C206.893 64.5282 216.012 70.3448 225.326 68.6026C226.883 73.3795 228.05 78.2969 228.829 83.2985C226.104 77.0043 219.988 72.5365 212.731 72.4241C212.564 82.2027 220.127 90.239 229.718 90.7167C229.913 93.1895 230.024 95.6622 230.024 98.163C230.024 100.299 229.913 102.406 229.774 104.513C228.217 97.8539 222.99 92.3465 215.901 90.9134C214.01 100.383 219.849 109.515 228.968 111.904C228.356 116.062 227.466 120.165 226.354 124.155C226.299 117.664 222.851 111.426 216.735 108.251C212.342 116.877 215.484 127.33 223.713 132.135C222.212 136.069 220.516 139.918 218.542 143.599C219.626 136.968 217.041 129.999 211.23 125.869C205.781 133.68 207.393 144.302 214.622 150.231C212.398 153.687 209.923 156.975 207.282 160.094C210.146 153.968 209.506 146.466 204.947 140.874C197.496 147.084 196.356 158.042 202.111 165.742C199.275 168.608 196.245 171.305 193.047 173.778C196.912 168.299 197.635 160.909 194.243 154.614C185.846 159.251 182.649 169.676 186.764 178.302C183.205 180.634 179.535 182.798 175.643 184.652C180.703 179.988 182.899 172.626 180.62 165.629C171.556 168.636 166.552 178.274 168.998 187.491C166.413 188.474 163.799 189.373 161.102 190.132C160.658 190.272 160.38 190.75 160.519 191.2C160.63 191.593 160.963 191.818 161.353 191.818C161.436 191.818 161.519 191.818 161.575 191.79C164.3 191.031 166.941 190.104 169.526 189.12C174.976 197.213 185.791 199.517 193.965 194.206C190.1 188.137 183.233 185.214 176.588 186.086C180.425 184.231 184.067 182.095 187.598 179.791C194.41 186.704 205.419 186.985 212.509 180.269C207.504 174.874 199.998 173.3 193.492 175.605C196.94 172.935 200.22 170.069 203.278 166.978C211.23 172.317 221.962 170.462 227.633 162.595C221.767 158.295 214.205 158.127 208.283 161.527C211.035 158.295 213.593 154.895 215.901 151.299C225.103 154.699 235.335 149.978 238.782 140.705C231.887 138.092 224.408 140.059 219.598 145.089C221.739 141.155 223.602 137.08 225.214 132.866C234.639 134.692 243.898 128.707 246.038 119.153C238.754 117.551 231.47 120.671 227.439 126.515Z" fill="#2F3185"/>
<path d="M140.775 44.0929V154.053H110.923V71.5829H110.278L86.2247 85.9721V60.6298L113.285 44.0929H140.775Z" fill="#2F3185"/>
</svg>
